<?xml version="1.0" standalone="no"?><!DOCTYPE svg PUBLIC "-//W3C//DTD SVG 1.1//EN" "http://www.w3.org/Graphics/SVG/1.1/DTD/svg11.dtd"><svg t="1687240376024" class="icon" viewBox="0 0 1024 1024" version="1.1" xmlns="http://www.w3.org/2000/svg" p-id="6934" xmlns:xlink="http://www.w3.org/1999/xlink" width="200" height="200"><path d="M511 64c247.424 0 448 200.576 448 448 0 123.427-49.914 235.197-130.657 316.224l-2.457 2.446-0.008-0.007 0.006 0.01a450.808 450.808 0 0 1-3.183 3.113l-2.145 2.065-1.623 1.544-1.591 1.5-1.035 0.966a450.663 450.663 0 0 1-6.43 5.876l-2.207 1.965a450.59 450.59 0 0 1-3.358 2.94l-1.853 1.597a450.432 450.432 0 0 1-3.36 2.853l-1.89 1.58c-1.15 0.956-2.305 1.907-3.465 2.852L791.922 861c-1.162 0.936-2.33 1.867-3.501 2.793l-1.924 1.51c-1.175 0.918-2.354 1.83-3.538 2.735l-1.939 1.475c-1.19 0.9-2.384 1.794-3.583 2.683l-1.898 1.398c-1.21 0.887-2.424 1.767-3.643 2.642l-2.017 1.44c-1.201 0.85-2.406 1.697-3.616 2.537l-2.013 1.39a448.873 448.873 0 0 1-5.272 3.564C687.972 932.447 602.704 960 511 960c-90.79 0-175.272-27.007-245.852-73.425l-2.132-1.411a448.708 448.708 0 0 1-3.54-2.382l-1.875-1.281a441.692 441.692 0 0 1-3.682-2.557l-1.965-1.388a447.96 447.96 0 0 1-8.84-6.438l-2.256-1.697a445.027 445.027 0 0 1-3.602-2.756l-1.878-1.46a449.315 449.315 0 0 1-8.492-6.802l-2.295-1.897c-1.13-0.94-2.254-1.886-3.374-2.836l-1.84-1.57a449.414 449.414 0 0 1-3.372-2.924l-1.83-1.61a450.58 450.58 0 0 1-8.052-7.304l-2.084-1.95a450.795 450.795 0 0 1-7.922-7.639l0.005-0.01-0.008 0.007C113.927 749.453 63 636.674 63 512 63 264.576 263.576 64 511 64z m0 552c-115.92 0-217.445 61.638-273.587 153.927a369.436 369.436 0 0 0 7.186 7.416l2.123 2.114-29.79 30.146 29.793-30.143a378.8 378.8 0 0 0 4.978 4.83l1.613 1.527 1.817 1.7a378.626 378.626 0 0 0 5.06 4.618l1.676 1.492 1.567 1.379 1.414 1.232 1.403 1.211 1.562 1.333 1.414 1.195 1.33 1.113 2.092 1.729 1.698 1.385a377.32 377.32 0 0 0 3.565 2.857l1.705 1.34 1.681 1.307 1.497 1.151 1.343 1.024 2.137 1.606 1.776 1.32c1.232 0.908 2.468 1.808 3.71 2.701l1.825 1.304 1.771 1.25 1.464 1.023 1.475 1.018 1.651 1.13 1.484 1.003 1.449 0.97 1.883 1.245 1.773 1.16C366.311 866.43 435.877 887.57 508.768 888H511c75.186 0 146.908-22.036 208.073-62.763 0.989-0.658 1.974-1.32 2.956-1.988l1.47-1.004 1.792-1.239 1.42-0.99 1.445-1.021 1.781-1.271 1.516-1.092 1.401-1.022 1.724-1.27 1.503-1.118 1.502-1.13 1.632-1.243 1.485-1.141 1.484-1.152 1.622-1.276 1.467-1.163 1.468-1.177 1.586-1.286 1.403-1.148 1.453-1.202 1.671-1.398 1.33-1.124 1.356-1.157 1.707-1.472 1.317-1.146 1.265-1.114 2.027-1.804 1.684-1.518a378.76 378.76 0 0 0 10.088-9.493l1.647-1.618 29.797 30.15-29.794-30.153a381.187 381.187 0 0 0 9.31-9.527C728.444 677.638 626.92 616 511 616z m0-352c-83.947 0-152 68.053-152 152s68.053 152 152 152 152-68.053 152-152-68.053-152-152-152z" fill="#000" p-id="6935"></path></svg>